<svg id="Layer_1" data-name="Layer 1" xmlns="http://www.w3.org/2000/svg" viewBox="0 0 344.43 343.11"><defs><style>.cls-1{fill:#fff;}</style></defs><title>coffee-cup</title><path d="M299.09,205.13c36-9,62.33,2.27,70.53,28.65,9.15,29.43-6.43,56.85-38.41,69.79-28.19,11.42-56,23.79-83.74,36.28-5.58,2.5-11.65,6.41-14.78,11.38-10.11,16.09-26,18.93-42.45,19.72-18.21.87-36.51.73-54.74,0-16.61-.62-32.62-3.62-42.44-19.64a15.3,15.3,0,0,0-5.47-5.13c-61.69-34-60.81-93.14-59.43-151.5.16-6.65,13.27-17.5,21.49-18.68,39.63-5.69,79.62-11.57,119.53-11.87,34.82-.27,69.76,6.37,104.53,10.85C289.4,177,301.33,184.47,299.09,205.13ZM182.3,344.06,145,338.77c25.22-9.15,54.61-11.92,67.44-36.91,11.91-23.18,16.25-50.25,24.3-76.87l33.83-4.81c-2.47,26.3-4.81,51.16-7.15,76l5.27.79c4.79-29.94,9.58-59.88,14.71-91.89C201,224.31,124,224.21,47,206.54,32.19,294.89,89.93,360.65,182.3,344.06Zm106.76-51c17.28-7.31,34.52-11.06,46.62-21,7.22-6,9.56-22.21,7.87-32.84-.91-5.68-15.19-13.18-23.17-12.87-12.81.49-22.87,9.18-24.85,23.89C293.81,263,291.7,275.71,289.06,293ZM88.25,182.72l-.16,7.74H271.43C210.68,174.64,149.53,175.08,88.25,182.72Z" transform="translate(-27.78 -28.45)"/><path d="M175.33,28.45c-13.66,26.45-9.81,46.58,7,66.82,18.73,22.6,12.75,46.84-14.49,64.6,9.06-26.64,2-48.05-13.46-69C137.76,68.4,145.77,43.65,175.33,28.45Z" transform="translate(-27.78 -28.45)"/><path d="M229.58,39.15c-19.24,24.34-11.49,42.67,5.1,61.61C251.52,120,245,142.84,220,156.93c8.75-22.8-.55-40.45-12.34-58.15C189.63,71.72,196.48,50.6,229.58,39.15Z" transform="translate(-27.78 -28.45)"/><path d="M118.47,42.6c-9.63,23-4.62,40.74,12.54,58.08,16.15,16.32,9.94,39.44-13.94,55.93,5.71-27.15-5.08-46.78-19.38-66.52C84.82,72.32,94.38,52.26,118.47,42.6Z" transform="translate(-27.78 -28.45)"/><path class="cls-1" d="M88.09,190.46l.16-7.74c61.28-7.64,122.43-8.08,183.18,7.74" transform="translate(-27.78 -28.45)"/></svg>