<?xml version="1.0" encoding="utf-8"?>
<!-- Generator: Adobe Illustrator 23.0.4, SVG Export Plug-In . SVG Version: 6.00 Build 0)  -->
<svg version="1.1" id="Layer_1" xmlns="http://www.w3.org/2000/svg" xmlns:xlink="http://www.w3.org/1999/xlink" x="0px" y="0px"
	 viewBox="0 0 344.4 343.1" style="enable-background:new 0 0 344.4 343.1;" xml:space="preserve">
<style type="text/css">
	.st0{fill:#FFFFFF;}
</style>
<title>coffee-cup</title>
<path class="st0" d="M251.8,221.8c25.5-6.4,44.1,1.6,49.9,20.3c6.5,20.8-4.5,40.2-27.2,49.4c-19.9,8.1-39.6,16.8-59.2,25.7
	c-3.9,1.8-8.2,4.5-10.5,8.1c-7.2,11.4-18.4,13.4-30,13.9c-12.9,0.6-25.8,0.5-38.7,0c-11.7-0.4-23.1-2.6-30-13.9
	c-1-1.5-2.3-2.8-3.9-3.6c-43.6-24.1-43-65.9-42-107.2c0.1-4.7,9.4-12.4,15.2-13.2c28-4,56.3-8.2,84.6-8.4
	c24.6-0.2,49.3,4.5,73.9,7.7C245,201.9,253.4,207.1,251.8,221.8z M169.2,320l-26.4-3.7c17.8-6.5,38.6-8.4,47.7-26.1
	c8.4-16.4,11.5-35.5,17.2-54.4l23.9-3.4c-1.7,18.6-3.4,36.2-5.1,53.8l3.7,0.6c3.4-21.2,6.8-42.4,10.4-65
	c-58.3,13.6-112.8,13.5-167.2,1C63,285.2,103.9,331.8,169.2,320z M244.7,284c12.2-5.2,24.4-7.8,33-14.9c5.1-4.2,6.8-15.7,5.6-23.2
	c-0.6-4-10.7-9.3-16.4-9.1c-9.1,0.3-16.2,6.5-17.6,16.9C248.1,262.7,246.6,271.7,244.7,284L244.7,284z M102.7,205.9l-0.1,5.5h129.7
	C189.3,200.2,146,200.5,102.7,205.9z"/>
<path class="st0" d="M164.3,96.8c-9.7,18.7-6.9,33,5,47.3c13.2,16,9,33.1-10.3,45.7c6.4-18.8,1.4-34-9.5-48.8
	C137.7,125,143.4,107.5,164.3,96.8z"/>
<path class="st0" d="M202.7,104.3c-13.6,17.2-8.1,30.2,3.6,43.6c11.9,13.6,7.3,29.8-10.4,39.7c6.2-16.1-0.4-28.6-8.7-41.1
	C174.4,127.4,179.3,112.4,202.7,104.3z"/>
<path class="st0" d="M124.1,106.8c-6.8,16.3-3.3,28.8,8.9,41.1c11.4,11.5,7,27.9-9.9,39.6c4-19.2-3.6-33.1-13.7-47.1
	C100.3,127.8,107,113.6,124.1,106.8z"/>
<polygon class="st0" points="71.9,67.9 74.3,72.7 79.6,73.5 75.7,77.3 76.7,82.6 71.9,80.1 67.1,82.6 68,77.3 64.2,73.5 69.5,72.7 
	"/>
<polygon class="st0" points="204,21.6 205.9,25.4 210.1,26 207,29 207.8,33.2 204,31.2 200.2,33.2 201,29 197.9,26 202.1,25.4 "/>
<polygon class="st0" points="236,82.6 239.1,75.6 235.1,69.2 242.6,69.9 247.5,64.1 249.1,71.6 256.1,74.4 249.6,78.3 249,85.8 
	243.4,80.8 "/>
<polygon class="st0" points="290,143.3 288.5,134.2 280.2,130.3 288.3,126.1 289.4,116.9 296,123.4 305,121.6 300.9,129.9 
	305.4,137.9 296.3,136.5 "/>
<polygon class="st0" points="292.8,18.9 295.3,23.9 300.9,24.8 296.8,28.7 297.8,34.3 292.8,31.6 287.8,34.3 288.7,28.7 284.7,24.8 
	290.3,23.9 "/>
<polygon class="st0" points="53,158.7 55.4,163.6 60.9,164.4 56.9,168.3 57.9,173.7 53,171.1 48.1,173.7 49.1,168.3 45.1,164.4 
	50.6,163.6 "/>
<polygon class="st0" points="139.3,75.1 141.7,80 147.2,80.8 143.2,84.6 144.2,90.1 139.3,87.5 134.4,90.1 135.4,84.6 131.4,80.8 
	136.9,80 "/>
<polygon class="st0" points="139.3,250 141.1,253.6 145,254.1 142.2,256.9 142.8,260.9 139.3,259 135.8,260.9 136.4,256.9 
	133.6,254.1 137.5,253.6 "/>
<polygon class="st0" points="85.3,27.7 87.1,31.3 91,31.9 88.2,34.7 88.9,38.6 85.3,36.8 81.8,38.6 82.5,34.7 79.6,31.9 83.6,31.3 
	"/>
<polygon class="st0" points="30.9,111.5 32.6,115.1 36.6,115.6 33.7,118.4 34.4,122.4 30.9,120.5 27.3,122.4 28,118.4 25.1,115.6 
	29.1,115.1 "/>
</svg>
